<svg width="456" height="386" viewBox="0 0 456 386" fill="none" xmlns="http://www.w3.org/2000/svg">
<g clip-path="url(#clip0_626_99)">
<path d="M439.331 315.852H16.4036C7.35882 315.852 0 308.493 0 299.448V248.546H455.735V299.448C455.735 308.493 448.376 315.852 439.331 315.852Z" fill="#E6E6E6"/>
<path d="M282.604 307.337H174.752V384.374H282.604V307.337Z" fill="#E6E6E6"/>
<path d="M289.092 374.643H168.265V384.374H289.092V374.643Z" fill="#E6E6E6"/>
<path d="M455.329 270.035H0V11.257C0 5.05001 5.05001 0 11.257 0H444.073C450.279 0 455.329 5.05001 455.329 11.257V270.035Z" fill="#3F3D56"/>
<path d="M444.382 11.7583H10.542V255.844H444.382V11.7583Z" fill="white"/>
<path d="M94.5602 157.24C97.8807 154.496 101.988 153.985 103.734 156.099C105.479 158.212 104.203 162.149 100.881 164.893C99.5686 166.008 98.0088 166.792 96.3317 167.18L82.1157 178.627L76.8859 171.842L91.4556 161.277C92.1532 159.703 93.2177 158.318 94.5602 157.24Z" fill="#FFB6B6"/>
<path d="M12.3933 183.069C12.3861 182.562 12.3908 178.146 15.6602 175.355C19.4157 172.149 24.715 173.447 26.5736 173.902C30.8672 174.953 31.2193 176.795 35.2514 178.688C42.7951 182.228 33.3432 180.416 37.8319 179.281C39.3856 178.888 61.7383 177.337 67.3023 173.913C78.1237 167.253 85.4969 163.214 85.4969 163.214L90.3169 172.854C90.3169 172.854 83.3471 182.545 73.5377 189.725C63.4755 197.089 58.4444 200.772 50.7985 202.194C50.14 202.317 33.9466 205.082 20.904 195.338C17.929 193.115 12.4783 189.043 12.3933 183.069Z" fill="#6D2020"/>
<path d="M27.3454 158.552C36.6189 158.552 44.1365 151.034 44.1365 141.76C44.1365 132.487 36.6189 124.969 27.3454 124.969C18.072 124.969 10.5543 132.487 10.5543 141.76C10.5543 151.034 18.072 158.552 27.3454 158.552Z" fill="#FFB6B6"/>
<path d="M158.847 254.57L141.555 236.869L132.628 246.18L145.512 263.152L158.291 264.614L158.847 254.57Z" fill="#FFB6B6"/>
<path d="M60.106 221.377C61.1175 221.461 64.3317 222.105 67.4038 220.414C69.5005 219.261 70.5758 217.546 70.9389 217C75.4446 210.233 92.7382 199.681 108.259 199.031C111.774 198.884 114.087 199.292 116.19 200.388C119.172 201.942 120.362 204.168 124.146 209.384C126.215 212.237 128.506 214.924 130.6 217.759C142.863 234.354 147.512 235.657 147.037 240.977C146.51 246.881 140.144 252.481 135.912 251.834C134.179 251.57 133.508 250.365 131.193 247.925C124.405 240.773 121.596 242.095 116.763 236.617C111.121 230.221 111.859 224.918 108.916 224.713C106.186 224.523 105.025 229.047 99.197 235.057C96.5301 237.807 94.631 239.068 88.8453 243.082C66.3143 258.713 65.9547 259.811 61.4077 261.058C59.4183 261.603 45.2984 265.474 40.2685 259.314C32.3973 249.674 50.9924 220.619 60.106 221.377Z" fill="#1E1C3F"/>
<path d="M153.56 258.57C154.832 257.999 156.319 257.331 156.798 255.795C157.121 254.756 156.935 253.475 156.266 252.59C155.494 251.569 154.351 251.434 154.397 251.253C154.468 250.978 157.17 251.086 160.136 252.134C160.696 252.332 163.232 253.259 166.458 255.777C169.043 257.795 168.695 258.2 170.316 259.363C175.291 262.935 179.957 260.12 182.649 263.469C183.688 264.762 184.131 266.597 183.694 268.081C182.816 271.061 178.546 272.087 176.212 272.616C170.592 273.891 166.338 272.85 161.896 272.102C146.789 269.556 138.301 271.875 137.165 268.375C136.95 267.712 137.299 267.769 138.464 262.908C139.614 258.11 139.576 256.793 140.555 256.409C142.029 255.83 143.019 258.461 146.731 259.361C150.021 260.159 152.736 258.94 153.56 258.57Z" fill="#1E1C3F"/>
<path d="M128.104 312.476L123.735 288.119L111.12 290.811L112.25 312.09L122.003 320.475L128.104 312.476Z" fill="#FFB6B6"/>
<path d="M65.0397 229.564C65.8294 230.201 68.1274 232.539 71.6186 232.865C74.0012 233.088 75.8541 232.273 76.4609 232.025C83.989 228.956 104.224 229.936 117.431 238.114C120.422 239.966 122.108 241.602 123.232 243.69C124.827 246.65 124.562 249.161 124.764 255.601C124.874 259.124 125.26 262.634 125.402 266.155C126.23 286.773 129.345 290.462 125.964 294.598C122.213 299.186 113.801 300.245 110.662 297.334C109.377 296.142 109.499 294.768 108.953 291.45C107.352 281.72 104.286 281.236 103.363 273.989C102.285 265.529 105.875 261.555 103.554 259.733C101.401 258.042 97.901 261.134 89.7036 262.834C85.9527 263.612 83.6728 263.59 76.6315 263.662C49.2109 263.944 48.2965 264.651 43.8341 263.129C41.8817 262.463 28.0245 257.738 27.3217 249.816C26.2221 237.419 57.9238 223.819 65.0397 229.564Z" fill="#1E1C3F"/>
<path d="M121.483 312.817C122.856 313.059 124.462 313.342 125.72 312.34C126.571 311.662 127.136 310.497 127.08 309.389C127.014 308.11 126.144 307.357 126.284 307.233C126.497 307.045 128.673 308.651 130.538 311.185C130.89 311.663 132.469 313.854 133.724 317.749C134.729 320.87 134.214 321.01 134.902 322.883C137.013 328.632 142.455 328.923 142.802 333.206C142.936 334.859 142.272 336.626 141.077 337.609C138.677 339.581 134.568 338.032 132.339 337.16C126.973 335.059 124.037 331.809 120.782 328.695C109.711 318.106 101.386 315.258 102.411 311.724C102.605 311.055 102.862 311.298 106.556 307.93C110.201 304.606 110.91 303.494 111.936 303.726C113.48 304.075 112.822 306.808 115.388 309.637C117.663 312.145 120.593 312.661 121.483 312.817Z" fill="#1E1C3F"/>
<path d="M29.6347 144.971C30.2883 142.632 29.4673 141.78 30.3041 140.73C30.3042 140.73 30.6409 140.308 33.6516 139.168C32.7633 134.014 33.4284 133.143 33.4284 133.143C34.1949 132.139 35.7305 131.896 36.7758 132.027C38.9867 132.305 39.3781 134.304 40.7927 134.259C42.747 134.197 45.0908 130.285 44.3633 126.894C43.7699 124.129 41.211 122.075 40.5696 122.431C39.9336 122.785 37.6441 121.226 36.7758 121.539C36.1829 121.752 33.3918 121.468 32.7589 121.762C32.0678 122.082 30.0885 124.079 29.8993 123.827C28.5843 122.079 28.6123 121.469 27.8494 121.092C26.4975 120.425 25.0277 121.659 22.4935 122.878C17.2792 125.386 15.7524 123.89 13.3439 126.002C12.1272 127.069 11.4748 129.108 10.2196 133.143C8.46421 138.786 7.58654 141.607 8.43429 144.301C9.29885 147.048 10.572 146.45 12.4512 150.326C14.543 154.641 13.8221 157.149 15.7986 158.137C17.3263 158.901 19.7813 158.415 20.7082 157.021C22.2952 154.636 18.1933 151.408 19.5924 147.648C20.4512 145.341 23.1004 143.591 24.7251 144.078C26.5621 144.629 26.6974 147.923 27.8494 147.872C28.8359 147.828 29.5207 145.378 29.6347 144.971Z" fill="#2F2E41"/>
<path d="M16.9144 161.038C20.3504 157.185 34.3463 161.173 35.66 167.287C36.2003 169.801 34.2056 170.863 34.7673 173.758C35.5889 177.993 40.2408 177.705 43.6938 182.015C48.5959 188.135 43.5457 194.118 49.0497 204.332C50.2258 206.514 51.2171 208.353 53.2897 210.134C58.046 214.219 62.4723 212.818 64.8942 216.605C66.7052 219.438 65.9611 222.929 65.7868 223.747C65.0721 227.1 63.1349 227.917 61.7699 230.665C59.4989 235.236 62.0702 238.592 62.2162 244.054C62.3989 250.888 58.7673 260.361 51.5044 263.469C43.345 266.961 33.504 261.178 28.7419 255.436C25.9004 252.009 25.0755 248.848 23.8324 244.947C18.2765 227.511 15.1377 229.088 10.889 215.266C6.0319 199.466 5.07706 180.955 10.889 175.097C11.6593 174.321 13.7793 172.526 15.1291 169.295C16.9453 164.947 15.3762 162.763 16.9144 161.038Z" fill="#6D2020"/>
<path d="M67.6857 250.723C70.3497 254.107 70.7627 258.226 68.6083 259.921C66.4539 261.616 62.5486 260.246 59.8841 256.859C58.8012 255.521 58.0544 253.943 57.7064 252.257L46.6 237.773L52.3389 233.396L63.7236 247.523C65.2809 248.258 66.6395 249.355 67.6857 250.723Z" fill="#FFB6B6"/>
<path d="M27.0102 175.721C27.5043 175.611 31.8284 174.714 35.228 177.345C39.1331 180.367 38.9439 185.82 38.8776 187.732C38.7243 192.15 36.9931 192.871 35.9632 197.204C34.0363 205.312 37.7058 212.846 39.7332 217.009C40.435 218.449 42.6895 222.858 47.1773 227.606C55.9055 236.841 63.6933 241.7 63.6933 241.7L55.327 249.137C55.327 249.137 42.0004 245.075 32.9704 236.937C23.7076 228.589 9.46308 199.054 6.51016 191.859C6.25585 191.239 9.85803 201.312 16.7359 186.556C18.3047 183.19 21.1792 177.023 27.0102 175.721Z" fill="#6D2020"/>
<path d="M241.138 168.793L231.149 164.061C235.246 169.779 238.776 178.709 240.666 185.815C243.867 179.196 249.025 171.096 254.132 166.259L243.574 168.975C250.08 137.091 274.548 114.202 302.569 114.202L302.965 113.051C273.697 113.051 247.78 135.622 241.138 168.793Z" fill="#3F3D56"/>
<path d="M287.114 217.373H223.999C221.322 217.373 219.144 215.195 219.144 212.518C219.144 209.84 221.322 207.662 223.999 207.662H287.114C289.792 207.662 291.97 209.84 291.97 212.518C291.97 215.195 289.792 217.373 287.114 217.373Z" fill="#6C63FF"/>
<path d="M371.098 217.373H307.982C305.305 217.373 303.127 215.195 303.127 212.518C303.127 209.84 305.305 207.662 307.982 207.662H371.098C373.775 207.662 375.953 209.84 375.953 212.518C375.953 215.195 373.775 217.373 371.098 217.373Z" fill="#E6E6E6"/>
<path d="M333.734 85.2949H272.383C270.836 85.2949 269.577 84.0363 269.577 82.4896C269.577 80.9429 270.836 79.6849 272.383 79.6849H333.734C335.281 79.6849 336.539 80.9429 336.539 82.4896C336.539 84.0363 335.281 85.2949 333.734 85.2949Z" fill="#3F3D56"/>
<path d="M366.656 115.222H239.461C237.914 115.222 236.655 113.964 236.655 112.417C236.655 110.87 237.914 109.612 239.461 109.612H366.656C368.203 109.612 369.461 110.87 369.461 112.417C369.461 113.964 368.203 115.222 366.656 115.222Z" fill="#3F3D56"/>
<path d="M27.578 385.091C27.578 385.595 27.9827 386 28.4866 386H427.248C427.752 386 428.157 385.595 428.157 385.091C428.157 384.588 427.752 384.183 427.248 384.183H28.4866C27.9827 384.183 27.578 384.588 27.578 385.091Z" fill="#3F3D56"/>
<path d="M125.494 169.721C125.385 169.721 125.278 169.717 125.169 169.71C118.779 169.3 96.9163 166.206 83.8641 143.638C82.7885 141.78 83.0004 139.418 84.391 137.761L108.563 108.961C109.552 107.783 111.079 107.104 112.625 107.123C113.694 107.148 116.225 107.418 116.716 109.369C119.62 120.895 131.881 134.448 146.628 136.244C148.122 136.426 149.322 137.759 149.837 139.811C150.239 141.408 149.868 143.054 148.818 144.328L129.454 167.842C128.471 169.036 127.027 169.721 125.494 169.721ZM112.532 108.281C111.351 108.281 110.202 108.811 109.451 109.705L85.2793 138.506C84.2005 139.791 84.0353 141.62 84.8673 143.058C97.6316 165.128 118.999 168.152 125.244 168.553C126.519 168.638 127.743 168.095 128.559 167.105L147.924 143.591C148.737 142.604 149.024 141.33 148.713 140.093C148.409 138.882 147.665 137.538 146.487 137.394C131.254 135.539 118.59 121.55 115.592 109.652C115.349 108.689 113.888 108.313 112.601 108.282C112.578 108.281 112.555 108.281 112.532 108.281Z" fill="#3F3D56"/>
<path d="M98.5125 144.586L115.939 126.817C117.131 125.603 115.264 123.734 114.072 124.95L96.6447 142.718C95.4534 143.933 97.3197 145.802 98.5125 144.586Z" fill="#E6E6E6"/>
<path d="M109.031 149.592C113.84 145.281 118.02 140.29 121.442 134.813C122.346 133.367 120.061 132.04 119.161 133.48C115.853 138.775 111.812 143.557 107.163 147.724C105.894 148.861 107.768 150.724 109.031 149.592Z" fill="#E6E6E6"/>
<path d="M118.511 155.586C122.89 150.736 126.617 145.322 129.552 139.482C130.313 137.967 128.035 136.628 127.271 138.149C124.436 143.791 120.875 149.031 116.643 153.719C115.506 154.978 117.369 156.852 118.511 155.586Z" fill="#E6E6E6"/>
<path d="M111.044 123.597C120.748 123.597 128.614 115.897 128.614 106.397C128.614 96.8983 120.748 89.1978 111.044 89.1978C101.341 89.1978 93.4742 96.8983 93.4742 106.397C93.4742 115.897 101.341 123.597 111.044 123.597Z" fill="#1E1A56"/>
<path d="M120.186 114.556C117.484 107.913 114.782 101.269 112.08 94.6254C111.706 93.7078 110.537 93.6752 110.173 94.6254C107.503 101.591 105.759 108.859 104.92 116.269C104.777 117.531 106.755 117.521 106.897 116.269C107.225 113.369 107.712 110.491 108.338 107.644C110.565 107.76 112.81 107.511 114.958 106.916C116.065 109.638 117.173 112.36 118.28 115.082C118.753 116.245 120.666 115.736 120.186 114.556ZM108.786 105.689C109.452 102.963 110.251 100.27 111.177 97.6192L114.207 105.069C112.432 105.535 110.617 105.743 108.786 105.689Z" fill="white"/>
</g>
<defs>
<clipPath id="clip0_626_99">
<rect width="455.735" height="386" fill="white"/>
</clipPath>
</defs>
</svg>
